<mxfile host="app.diagrams.net" modified="2024-03-01T04:55:10.586Z" agent="Mozilla/5.0 (Windows NT 10.0; Win64; x64) AppleWebKit/537.36 (KHTML, like Gecko) Chrome/121.0.0.0 Safari/537.36" version="24.0.0" etag="IJZchSGWHfcD-ie49M7W" type="github">
  <diagram name="第 1 页" id="NSQ0sdVydswsNH5tlHV6">
    <mxGraphModel>
      <root>
        <mxCell id="0" />
        <mxCell id="1" parent="0" />
      </root>
    </mxGraphModel>
  </diagram>
</mxfile>
